<svg width="42" height="42" viewBox="0 0 42 42" fill="none" xmlns="http://www.w3.org/2000/svg">
<circle r="20" transform="matrix(1 0 0 -1 21 21)" stroke="#EEAB47" stroke-width="1.5"/>
<path d="M20.9999 4.00003C16.6448 4.00003 12.2898 5.65751 8.97319 8.97389C2.78204 15.1661 2.37118 24.9806 7.74204 31.6545C7.44426 30.8566 7.38195 29.9899 7.56253 29.1576C7.74312 28.3254 8.15899 27.5625 8.76068 26.9597C9.43042 26.2909 10.2961 25.8534 11.2318 25.7107C12.1675 25.568 13.1243 25.7276 13.9629 26.1664C12.6664 24.3922 12.0865 22.1945 12.3391 20.0117C12.5916 17.8289 13.658 15.8216 15.3254 14.3903C16.9928 12.9591 19.1386 12.2091 21.3346 12.2902C23.5306 12.3712 25.6153 13.2772 27.1726 14.8275C27.9489 15.6037 29.0018 16.0398 30.0996 16.0398C31.1974 16.0398 32.2503 15.6037 33.0266 14.8275C33.8029 14.0513 34.239 12.9985 34.239 11.9007C34.239 10.8029 33.8029 9.75012 33.0266 8.97389C31.4483 7.39362 29.5734 6.14072 27.5095 5.28715C25.4456 4.43358 23.2334 3.99617 20.9999 4.00003ZM34.2606 10.348C34.5579 11.1459 34.6198 12.0123 34.439 12.8443C34.2582 13.6763 33.8422 14.4389 33.2405 15.0414C32.5708 15.7102 31.7051 16.1477 30.7694 16.2904C29.8337 16.4331 28.8769 16.2735 28.0383 15.8347C29.2716 17.5164 29.8625 19.5839 29.7039 21.6633C29.5454 23.7428 28.648 25.6968 27.174 27.1722C26.3978 27.9482 25.9616 29.0009 25.9614 30.0985C25.9614 30.642 26.0684 31.1802 26.2763 31.6823C26.4842 32.1844 26.789 32.6407 27.1733 33.0251C27.5576 33.4094 28.0138 33.7143 28.516 33.9224C29.0181 34.1304 29.5563 34.2375 30.0998 34.2376C31.1975 34.2377 32.2503 33.8018 33.0266 33.0258C39.2177 26.835 39.6286 17.0205 34.2592 10.348H34.2606ZM11.8988 25.9595C11.355 25.9592 10.8165 26.066 10.3141 26.2739C9.81169 26.4818 9.35519 26.7867 8.97071 27.1711C8.58622 27.5556 8.28131 28.0121 8.0734 28.5144C7.86549 29.0168 7.75867 29.5553 7.75904 30.099C7.75867 30.6427 7.86549 31.1811 8.0734 31.6835C8.28131 32.1859 8.58622 32.6424 8.97071 33.0268C9.35519 33.4113 9.81169 33.7162 10.3141 33.9241C10.8165 34.132 11.355 34.2388 11.8988 34.2384C12.4425 34.2388 12.981 34.132 13.4834 33.9241C13.9858 33.7162 14.4423 33.4113 14.8268 33.0268C15.2113 32.6424 15.5162 32.1859 15.7241 31.6835C15.932 31.1811 16.0388 30.6427 16.0385 30.099C16.039 29.5553 15.9324 29.0168 15.7247 28.5143C15.5169 28.0119 15.2122 27.5553 14.8278 27.1707C14.4435 26.7861 13.9871 26.4811 13.4847 26.273C12.9824 26.0649 12.4439 25.9579 11.9002 25.9581L11.8988 25.9595ZM26.1653 28.0378C24.6668 29.1361 22.8572 29.7283 20.9992 29.7283C19.1412 29.7283 17.3316 29.1361 15.833 28.0378C16.2714 28.8765 16.4308 29.8331 16.2881 30.7686C16.1454 31.7041 15.7081 32.5698 15.0397 33.2397C14.4369 33.8414 13.6739 34.2572 12.8415 34.4375C12.0091 34.6179 11.1424 34.5551 10.3446 34.2569C16.5442 39.2477 25.4541 39.2477 31.6524 34.2569C30.8548 34.5549 29.9884 34.6174 29.1562 34.4371C28.3241 34.2568 27.5613 33.8411 26.9587 33.2397C26.2899 32.57 25.8523 31.7043 25.7096 30.7687C25.5669 29.8331 25.7266 28.8764 26.1653 28.0378Z" fill="#EEAB47"/>
<path d="M21.8881 20.1709C21.5071 19.8852 20.6307 19.0281 20.1736 19.0281C19.6022 19.0281 18.4594 19.5995 17.888 19.8852C17.888 19.8852 16.7455 20.4566 17.6026 20.7423C18.2883 20.9708 20.7453 21.028 21.8881 21.028M16.1738 19.8852C16.3643 19.9804 16.7452 20.3423 16.7452 21.028C16.7452 21.885 16.7452 22.1707 16.4595 22.4564" stroke="#EEAB47" stroke-width="0.5" stroke-linecap="round" stroke-linejoin="round"/>
<path d="M15.0312 28.1704C15.1265 27.8848 15.4884 27.1991 16.174 26.742C16.8597 26.2848 17.793 25.7896 18.1739 25.5992C18.2692 25.2182 18.5837 24.618 18.7453 24.4564C19.031 24.1707 19.2215 24.2659 19.3167 24.1707V23.5993M19.3167 23.5993C18.4596 23.4088 16.6312 22.9136 16.174 22.4565C15.7169 21.9994 15.6026 21.8851 15.6026 21.3137C15.6026 20.7423 15.6026 20.1709 16.174 19.8852C16.4631 19.7407 16.6502 19.2186 16.7454 19.0281M19.3167 23.5993L21.6023 24.1707C21.6023 23.885 21.6023 23.2565 21.6023 23.0279C21.6023 22.7422 21.0309 21.8851 20.7452 21.5994C20.3412 21.1954 21.6023 21.028 21.888 21.028C22.1165 21.028 22.1737 20.6471 22.1737 20.4566L21.888 20.1709L23.0308 19.5995C22.9355 19.4091 22.7451 18.971 22.7451 18.7424C22.7451 18.4567 22.1737 17.5996 21.6023 17.0283C21.1452 16.5711 20.8404 16.483 20.7452 16.4961M16.7454 19.0281C16.8407 18.552 17.0883 17.4854 17.3168 17.0283C17.6025 16.4569 17.8882 15.5998 18.4596 15.0284C18.7453 14.7427 19.031 14.7427 19.031 14.7427M16.7454 19.0281C16.8407 19.0281 17.0883 19.0281 17.3168 19.0281C17.5454 19.0281 17.793 19.0281 17.8882 19.0281C17.793 18.552 17.6597 17.4282 17.8882 16.7426C18.1739 15.8855 18.1739 14.7427 19.031 14.7427M19.031 14.7427C19.031 14.7427 19.3167 14.7427 19.6024 15.0284C19.764 15.19 19.9833 16.0759 20.1738 16.7426C20.312 16.6043 20.5306 16.533 20.7452 16.4961M26.4591 28.1704C26.4591 27.8848 25.8877 27.3134 25.602 27.0277C25.3735 26.7991 24.9354 26.361 24.745 26.1706C24.6497 26.0753 24.4593 25.8277 24.4593 25.5992C24.4593 25.3135 23.8879 24.4564 23.6022 24.4564C23.3165 24.4564 23.3165 24.4564 23.3165 24.1707C23.3165 23.885 23.8879 23.5993 24.4593 23.3136C25.0307 23.0279 25.8877 22.4565 26.1734 22.1708C26.4591 21.8851 26.7448 21.3137 27.0305 21.028C27.0305 21.028 27.2591 20.7423 27.0305 20.7423C26.7448 20.7423 26.1734 20.1709 25.8877 19.8852C25.602 19.5995 25.3164 19.0281 25.0307 18.4567C24.745 17.8853 24.745 17.8853 24.4593 17.5996C24.2307 17.3711 23.9831 17.1235 23.8879 17.0283C23.8879 16.933 23.8307 16.6283 23.6022 16.1712C23.3736 15.714 23.5069 15.0284 23.6022 14.7427C23.5069 14.7427 23.2022 14.7998 22.7451 15.0284C22.1737 15.3141 21.6023 16.4569 21.3166 16.4569C21.1986 16.4569 20.9741 16.4569 20.7452 16.4961" stroke="#EEAB47" stroke-width="0.5" stroke-linecap="round" stroke-linejoin="round"/>
<path d="M18.1738 25.5991C18.1738 25.6944 18.231 25.942 18.4595 26.1705C18.7452 26.4562 19.6023 26.4562 20.1737 26.7419C20.7451 27.0276 21.6022 27.3133 21.6022 27.8847C21.6022 28.3418 21.7927 29.7893 21.8879 30.456" stroke="#EEAB47" stroke-width="0.5" stroke-linecap="round" stroke-linejoin="round"/>
<path d="M19.3166 24.1707C19.2214 24.3611 19.0881 24.7992 19.3166 25.0277C19.6023 25.3134 20.9552 25.9898 21.3166 26.1705C21.888 26.4562 22.1737 26.7419 22.1737 27.3133C22.1737 28.0361 22.6498 29.5037 22.745 30.1703M24.4592 25.5991C24.4592 25.6944 24.4021 25.9991 24.1735 26.4562C23.8878 27.0276 23.8878 27.0276 23.8878 27.599C23.8878 28.0561 24.2688 29.0275 24.4592 29.5989" stroke="#EEAB47" stroke-width="0.5" stroke-linecap="round" stroke-linejoin="round"/>
<path d="M24.4596 19.5996C24.0025 19.8281 23.6025 20.5519 23.6025 20.7423C23.6978 20.8376 23.9454 21.028 24.1739 21.028C24.4596 21.028 24.4596 21.028 25.031 20.7423C25.4881 20.5138 25.6024 20.4566 25.6024 20.1709C25.6024 20.1709 25.6024 20.171 25.3167 19.8852C25.031 19.5994 25.031 19.3139 24.4596 19.5996Z" stroke="#EEAB47" stroke-width="0.5" stroke-linecap="round" stroke-linejoin="round"/>
<path d="M24.1733 22.0756C24.1733 22.1602 23.8304 22.3295 23.6019 22.3295C23.3162 22.3295 23.0305 22.0756 22.7448 22.0756C22.5162 22.0756 21.9829 22.2449 21.8877 22.3295M23.0305 21.5994C23.0305 21.5994 22.5543 21.3137 22.4591 21.3137L23.0305 21.5994ZM23.0305 21.5994L23.3162 21.3137M23.0305 21.5994C23.0305 21.6841 23.3162 21.8851 23.0305 22.0756" stroke="#EEAB47" stroke-width="0.3" stroke-linecap="round" stroke-linejoin="round"/>
<path d="M23.0304 21.5994L23.3161 21.3137H23.0304H22.459L23.0304 21.5994Z" fill="#60C0C2" stroke="#EEAB47" stroke-width="0.2" stroke-linecap="round" stroke-linejoin="round"/>
<path d="M16.1738 26.7419C16.3643 26.7419 16.8024 26.9134 17.0309 27.599C17.2595 28.2847 17.3166 29.4085 17.3166 29.8846" stroke="#EEAB47" stroke-width="0.5" stroke-linecap="round" stroke-linejoin="round"/>
<path d="M22.1729 27.3135H23.887" stroke="#EEAB47" stroke-width="0.3" stroke-linecap="round" stroke-linejoin="round"/>
<path d="M17.8877 19.0283C17.9829 18.8378 18.4478 18.1825 19.0305 17.5998C19.6019 17.0284 20.1733 16.7427 20.1733 16.7427" stroke="#EEAB47" stroke-width="0.3" stroke-linecap="round" stroke-linejoin="round"/>
<path d="M21.3154 16.4568L22.7439 16.7425L23.8867 17.0282" stroke="#EEAB47" stroke-width="0.3" stroke-linecap="round" stroke-linejoin="round"/>
<circle cx="24.4591" cy="20.171" r="0.571395" fill="#EEAB47"/>
<path d="M21.6025 23.8851L23.8881 23.5994" stroke="#EEAB47" stroke-width="0.5" stroke-linecap="round" stroke-linejoin="round"/>
<path d="M16.7461 22.7423C16.8413 22.647 17.0889 22.3994 17.3175 22.1709C17.546 21.9423 18.9364 22.0756 19.6031 22.1709C19.6983 22.1709 19.9459 22.228 20.1745 22.4566C20.403 22.6851 20.4602 23.5041 20.4602 23.885" stroke="#EEAB47" stroke-width="0.2" stroke-linecap="round" stroke-linejoin="round"/>
<path d="M21.6017 18.1711L21.0303 18.4568L21.8874 19.5996L22.1731 19.3139L21.6017 18.1711Z" stroke="#EEAB47" stroke-width="0.2" stroke-linecap="round" stroke-linejoin="round"/>
<path d="M20.745 27.0276C20.0784 27.2181 18.7451 27.6561 18.7451 27.8847C18.7451 28.1132 19.126 29.6941 19.3165 30.456" stroke="#EEAB47" stroke-width="0.2" stroke-linecap="round" stroke-linejoin="round"/>
<path d="M23.3164 24.1707C23.3164 24.3611 23.3164 24.7992 23.3164 25.0277C23.3164 25.2563 23.6973 26.6467 23.8878 27.3133" stroke="#EEAB47" stroke-width="0.5" stroke-linecap="round" stroke-linejoin="round"/>
<path d="M18.075 26.742C18.075 26.7626 18.0557 26.8082 17.9629 26.8546C17.8761 26.898 17.7492 26.9277 17.6036 26.9277C17.458 26.9277 17.3311 26.898 17.2443 26.8546C17.1515 26.8082 17.1322 26.7626 17.1322 26.742C17.1322 26.7214 17.1515 26.6758 17.2443 26.6294C17.3311 26.586 17.458 26.5563 17.6036 26.5563C17.7492 26.5563 17.8761 26.586 17.9629 26.6294C18.0557 26.6758 18.075 26.7214 18.075 26.742Z" stroke="#EEAB47" stroke-width="0.2"/>
<path d="M17.3164 26.4563L17.8878 27.0277" stroke="#EEAB47" stroke-width="0.2" stroke-linecap="round" stroke-linejoin="round"/>
</svg>
