<svg width="42" height="42" viewBox="0 0 42 42" fill="none" xmlns="http://www.w3.org/2000/svg">
<circle r="20" transform="matrix(1 0 0 -1 21 21)" stroke="#60C0C2" stroke-width="1.5"/>
<path d="M21.0002 7.66677C17.5845 7.66677 14.1688 8.96675 11.5675 11.5678C6.71173 16.4244 6.38949 24.1221 10.6019 29.3565C10.3684 28.7307 10.3195 28.051 10.4611 27.3982C10.6028 26.7455 10.9289 26.1471 11.4009 25.6743C11.9261 25.1498 12.6051 24.8066 13.339 24.6947C14.0729 24.5828 14.8233 24.708 15.4811 25.0521C14.4642 23.6607 14.0094 21.9369 14.2074 20.2249C14.4055 18.5129 15.2419 16.9386 16.5496 15.816C17.8574 14.6935 19.5404 14.1053 21.2627 14.1688C22.9851 14.2324 24.6201 14.943 25.8416 16.1589C26.4505 16.7677 27.2762 17.1097 28.1373 17.1097C28.9983 17.1097 29.8241 16.7677 30.4329 16.1589C31.0418 15.5501 31.3838 14.7244 31.3838 13.8634C31.3838 13.0024 31.0418 12.1766 30.4329 11.5678C29.1951 10.3284 27.7246 9.34575 26.1058 8.67628C24.4871 8.00681 22.752 7.66374 21.0002 7.66677ZM31.4008 12.6456C31.634 13.2714 31.6825 13.9509 31.5407 14.6035C31.3989 15.256 31.0726 15.8541 30.6007 16.3267C30.0754 16.8512 29.3965 17.1944 28.6626 17.3063C27.9287 17.4182 27.1783 17.293 26.5205 16.9489C27.4879 18.2679 27.9513 19.8894 27.827 21.5204C27.7026 23.1513 26.9988 24.6839 25.8427 25.841C25.2339 26.4497 24.8918 27.2753 24.8916 28.1361C24.8916 28.5624 24.9755 28.9845 25.1386 29.3784C25.3017 29.7722 25.5408 30.1301 25.8422 30.4315C26.1436 30.733 26.5014 30.9721 26.8952 31.1353C27.289 31.2985 27.7111 31.3825 28.1374 31.3825C28.9984 31.3826 29.8241 31.0407 30.4329 30.4321C35.2888 25.5766 35.611 17.8789 31.3997 12.6456H31.4008ZM13.8621 24.8899C13.4356 24.8896 13.0133 24.9734 12.6192 25.1364C12.2252 25.2995 11.8671 25.5386 11.5656 25.8402C11.264 26.1417 11.0249 26.4997 10.8618 26.8938C10.6988 27.2878 10.615 27.7101 10.6153 28.1365C10.615 28.563 10.6988 28.9853 10.8618 29.3793C11.0249 29.7733 11.264 30.1314 11.5656 30.4329C11.8671 30.7344 12.2252 30.9736 12.6192 31.1366C13.0133 31.2997 13.4356 31.3835 13.8621 31.3832C14.2886 31.3835 14.7109 31.2997 15.1049 31.1366C15.499 30.9736 15.857 30.7344 16.1586 30.4329C16.4602 30.1314 16.6993 29.7733 16.8624 29.3793C17.0254 28.9853 17.1092 28.563 17.1089 28.1365C17.1094 27.7101 17.0257 27.2878 16.8628 26.8937C16.6999 26.4996 16.4608 26.1415 16.1594 25.8398C15.8579 25.5382 15.5 25.299 15.106 25.1358C14.712 24.9726 14.2897 24.8887 13.8632 24.8888L13.8621 24.8899ZM25.0516 26.5199C23.8762 27.3814 22.4569 27.8458 20.9997 27.8458C19.5424 27.8458 18.1231 27.3814 16.9478 26.5199C17.2916 27.1777 17.4166 27.928 17.3047 28.6617C17.1928 29.3955 16.8498 30.0744 16.3256 30.5998C15.8528 31.0718 15.2543 31.3979 14.6015 31.5393C13.9486 31.6808 13.2688 31.6316 12.6431 31.3976C17.5056 35.312 24.4938 35.312 29.3551 31.3976C28.7296 31.6313 28.05 31.6804 27.3974 31.539C26.7447 31.3975 26.1465 31.0716 25.6738 30.5998C25.1493 30.0746 24.8061 29.3956 24.6941 28.6618C24.5822 27.928 24.7074 27.1776 25.0516 26.5199Z" fill="#60C0C2"/>
</svg>
